<svg width="105" height="28" viewBox="0 0 105 28" fill="none" xmlns="http://www.w3.org/2000/svg">
	<path d="M26.2959 10.6902V6.28402C26.0458 6.24554 25.7572 6.20706 25.3916 6.16858C25.026 6.14934 24.6989 6.1301 24.4103 6.1301C23.1404 6.1301 22.0052 6.47643 21.0047 7.14987C20.0041 7.84255 19.3115 8.80459 18.9074 10.0553H18.6765V6.26478H13.5776V27.4106H18.8304V15.4043C18.8304 14.4807 19.0421 13.6726 19.4846 12.9607C19.9272 12.2487 20.5236 11.6907 21.274 11.3059C22.0244 10.9019 22.8903 10.7095 23.8523 10.7095C23.9293 10.6902 26.2959 10.6902 26.2959 10.6902Z" fill="#111111"></path>
	<path d="M68.1834 8.26584C67.2599 7.38075 66.1824 6.72656 64.9702 6.30326C63.758 5.87996 62.4689 5.6683 61.122 5.6683C59.0247 5.6683 57.1776 6.13009 55.6191 7.0729C54.0605 8.01571 52.8484 9.30485 51.9825 10.9788C51.1167 12.6528 50.6934 14.5961 50.6934 16.7896C50.6934 19.0408 51.1167 20.9841 51.9825 22.6389C52.8484 24.2936 54.0798 25.5635 55.6768 26.4678C57.2738 27.3721 59.1786 27.8147 61.3914 27.8147C63.1038 27.8147 64.6238 27.5646 65.9515 27.045C67.2791 26.5448 68.3758 25.8136 69.2224 24.8901C70.069 23.9665 70.6655 22.8698 70.9734 21.6191L66.1246 21.0803C65.8937 21.6768 65.5474 22.1963 65.1049 22.6004C64.6623 23.0044 64.1236 23.3123 63.5079 23.5239C62.8922 23.7356 62.2187 23.8318 61.4491 23.8318C60.3139 23.8318 59.3326 23.6009 58.486 23.1199C57.6394 22.6581 56.9852 21.9654 56.5234 21.0803C56.0616 20.2145 55.8307 19.1947 55.8307 18.0018H71.185V16.4433C71.185 14.5576 70.9156 12.9414 70.3769 11.5753C69.8381 10.2861 69.107 9.15092 68.1834 8.26584ZM55.8499 14.6538C55.9077 13.8072 56.1193 13.0376 56.5234 12.3064C56.9659 11.4983 57.6009 10.8441 58.3898 10.3439C59.1979 9.8436 60.1214 9.59347 61.1797 9.59347C62.1802 9.59347 63.0461 9.80512 63.7965 10.2477C64.5469 10.6902 65.1241 11.2867 65.5474 12.0371C65.9707 12.7875 66.1824 13.6533 66.2016 14.6346H55.8499V14.6538Z" fill="#2d736d"></path>
	<path d="M42.8424 6.38028V18.2905C42.8424 19.3872 42.6115 20.3108 42.1305 21.0419C41.6687 21.7731 41.0723 22.3311 40.3411 22.6966C39.6099 23.0622 38.8595 23.2546 38.0899 23.2546C36.8392 23.2546 35.8195 22.8506 35.0498 22.0425C34.2802 21.2343 33.8954 20.1376 33.8954 18.7715V6.38028H28.6426V19.5219C28.6426 21.2536 28.9504 22.7351 29.5854 23.9473C30.2203 25.1595 31.0862 26.1023 32.2022 26.7373C33.3181 27.3722 34.6073 27.6993 36.0696 27.6993C37.7436 27.6993 39.1482 27.3145 40.3026 26.5448C41.4571 25.7752 42.2652 24.7747 42.7847 23.5625H43.0156V27.4299H48.0952V6.38028H42.8424Z" fill="#111111"></path>
	<path d="M103.51 9.26643C102.971 8.30438 102.259 7.53474 101.374 6.97675C100.489 6.41876 99.5268 6.0147 98.4493 5.76457C97.391 5.51443 96.3135 5.39899 95.236 5.39899C89.0212 5.39899 87.0009 9.32415 86.6738 10.0553H86.4429V6.28407C86.212 6.24559 85.9042 6.20711 85.5386 6.16863C85.173 6.14939 84.8459 6.13014 84.5573 6.13014C83.2874 6.13014 82.1522 6.47648 81.1516 7.14992C80.1511 7.82335 79.4584 8.80464 79.0544 10.0553H78.8235V6.26483H73.7246V27.4107H78.9774V15.4043C78.9774 14.4807 79.189 13.6726 79.6316 12.9607C80.0741 12.2488 80.6706 11.6908 81.421 11.306C82.1714 10.9212 83.0373 10.7095 83.9993 10.7095C84.057 10.7095 85.3462 10.7095 86.0196 10.7095C86.2697 10.7095 86.4237 10.7095 86.4237 10.7095H91.5803C91.7727 10.5171 91.9843 10.3247 92.2344 10.1515C92.9848 9.61277 94.0046 9.32415 95.2938 9.32415C96.5059 9.32415 97.4488 9.61277 98.1029 10.2092C98.7571 10.7865 99.0842 11.6138 99.0842 12.6913V12.7683C99.0842 13.2493 98.8918 13.6149 98.5263 13.8458C98.1607 14.0767 97.5642 14.2498 96.7561 14.3461C95.948 14.4615 94.8897 14.5769 93.5813 14.7116C92.5038 14.8271 91.4456 15.0002 90.445 15.2504C89.4253 15.5005 88.5209 15.8661 87.7321 16.3471C86.9239 16.8281 86.289 17.4631 85.8272 18.2712C85.3654 19.0793 85.1345 20.0799 85.1345 21.3113C85.1345 22.7351 85.4616 23.9281 86.1158 24.9094C86.77 25.8714 87.6551 26.6218 88.7903 27.1028C89.9255 27.6031 91.1954 27.8532 92.6 27.8532C93.7545 27.8532 94.7743 27.6993 95.6401 27.3722C96.5059 27.0644 97.2179 26.641 97.7951 26.1215C98.3723 25.602 98.8149 25.044 99.142 24.4283H99.3151V27.4107H104.376V12.8645C104.318 11.4214 104.048 10.2285 103.51 9.26643ZM99.065 19.6181C99.065 20.4262 98.8533 21.1574 98.43 21.8308C98.0067 22.5042 97.4103 23.0622 96.6406 23.4663C95.871 23.8703 94.9474 24.082 93.8892 24.082C92.7924 24.082 91.8881 23.8511 91.1954 23.3701C90.4835 22.8891 90.1372 22.1771 90.1372 21.2343C90.1372 20.5801 90.3103 20.0414 90.6759 19.6181C91.0415 19.1948 91.5225 18.8677 92.1382 18.6368C92.754 18.4059 93.4659 18.2327 94.2355 18.1365C94.5818 18.098 94.9859 18.0403 95.4669 17.9634C95.948 17.9056 96.4097 17.8287 96.91 17.7325C97.391 17.6555 97.8336 17.5401 98.2184 17.4439C98.6032 17.3284 98.8918 17.213 99.0458 17.0783V19.6181H99.065Z" fill="#2d736d"></path>
	<path d="M5.84235 6.26483V10.5941V6.26483H0.570312V5.16809V6.26483H5.84235Z" fill="#111111"></path>
	<path d="M10.5563 23.0045V27.3145H7.24681C6.05387 27.3145 4.95713 27.1221 3.97584 26.718C2.91759 26.2947 2.09022 25.6213 1.47451 24.7169C0.8588 23.8126 0.550944 22.6774 0.570185 21.3305V11.5176H5.84222V20.4839C5.84222 21.1766 5.95766 21.6961 6.16932 22.0617C6.38097 22.4273 6.66958 22.6774 7.03516 22.8121C7.40074 22.9468 7.78556 23.0045 8.20886 23.0045H10.537C10.5563 23.0045 10.5563 23.0045 10.5563 23.0045Z" fill="#111111"></path>
	<path d="M11.1143 6.2648H5.84229V11.5368H11.1143V6.2648Z" fill="#111111"></path>
	<path d="M5.84283 0.992767H0.570801V6.2648H5.84283V0.992767Z" fill="#111111"></path>
</svg>
